# xmcd CD database file
#
# Track frame offsets:
#	150
#	29561
#	50227
#	62128
#	82375
#	103269
#	118717
#	137050
#	156937
#	173145
#	193880
#	210700
#	227239
#	246550
#	264755
#	282525
#	304285
#	322236
#
# Disc length: 4679 seconds
#
# Revision: 0
# Processed by: cddbd v1.5.1PL2 Copyright (c) Steve Scherf et al.
# Submitted via: CDex 1.51
#
DISCID=29124512
DTITLE=Ralph Lundsten - Prelude to the future
DYEAR=2003
DGENRE=New Age
TTITLE0=Prelude to the future
TTITLE1=Mass for an android
TTITLE2=Star symphony
TTITLE3=The world of legends
TTITLE4=Starlight
TTITLE5=Sunny dreams
TTITLE6=A star saga
TTITLE7=Funshine zerenade
TTITLE8=Horizon of love
TTITLE9=The maiden's cave
TTITLE10=The path of the soul
TTITLE11=Cosmic psalm
TTITLE12=Life crusader
TTITLE13=The path of eternal longing
TTITLE14=The gate of time
TTITLE15=Garden of angels
TTITLE16=Lucky serenade
TTITLE17=The way to cosmic wisdom
EXTD=YEAR: 2003
EXTT0=
EXTT1=
EXTT2=
EXTT3=
EXTT4=
EXTT5=
EXTT6=
EXTT7=
EXTT8=
EXTT9=
EXTT10=
EXTT11=
EXTT12=
EXTT13=
EXTT14=
EXTT15=
EXTT16=
EXTT17=
PLAYORDER=
